<?xml version="1.0" encoding="utf-8"?>
<!-- Generator: Adobe Illustrator 19.2.0, SVG Export Plug-In . SVG Version: 6.00 Build 0)  -->
<svg version="1.1" id="Layer_1" xmlns="http://www.w3.org/2000/svg" xmlns:xlink="http://www.w3.org/1999/xlink" x="0px" y="0px"
	 viewBox="0 0 800 600" style="enable-background:new 0 0 800 600;" xml:space="preserve">
<style type="text/css">
	.st0{fill:#ECF0F1;}
	.st1{fill:#7986CB;}
	.st2{fill:#DEE0E0;}
</style>
<g>
	<path class="st0" d="M503.3,486.5H7.4c-4.1,0-7.4-3.3-7.4-7.4V161.2h510.7v317.9C510.7,483.2,507.4,486.5,503.3,486.5z"/>
	<path class="st1" d="M510.7,161.2H0v-40.3c0-4.1,3.3-7.4,7.4-7.4h495.8c4.1,0,7.4,3.3,7.4,7.4V161.2z"/>
	<rect x="26.4" y="186.5" class="st2" width="90.7" height="90.7"/>
	<rect x="391.7" y="242.8" class="st2" width="90.7" height="154"/>
	<rect x="26.4" y="291.3" class="st2" width="90.7" height="8.8"/>
	<rect x="26.4" y="302.5" class="st2" width="90.7" height="8.8"/>
	<rect x="26.4" y="314.2" class="st2" width="90.7" height="8.8"/>
	<rect x="26.4" y="325.9" class="st2" width="90.7" height="8.8"/>
	<rect x="391.7" y="186.5" class="st2" width="90.7" height="8.8"/>
	<rect x="391.7" y="197.6" class="st2" width="90.7" height="8.8"/>
	<rect x="391.7" y="209.4" class="st2" width="90.7" height="8.8"/>
	<rect x="391.7" y="221.1" class="st2" width="90.7" height="8.8"/>
	<rect x="137.4" y="186.5" class="st2" width="226.8" height="115.8"/>
	<rect x="137.4" y="319.5" class="st2" width="226.8" height="154.6"/>
</g>
</svg>
