<svg id="Layer_1" data-name="Layer 1" xmlns="http://www.w3.org/2000/svg" viewBox="0 0 510.69 373.03"><title>Facebook</title><path d="M0,47.74H510.69a0,0,0,0,1,0,0V365.59a7.43,7.43,0,0,1-7.43,7.43H7.43A7.43,7.43,0,0,1,0,365.59V47.74a0,0,0,0,1,0,0Z" fill="#ecf0f1"/><path d="M7.43,0H503.26a7.43,7.43,0,0,1,7.43,7.43V47.74a0,0,0,0,1,0,0H0a0,0,0,0,1,0,0V7.43A7.43,7.43,0,0,1,7.43,0Z" fill="#7986cb"/><rect x="26.42" y="73" width="90.71" height="90.71" fill="#dee0e0"/><rect x="391.74" y="129.35" width="90.71" height="154.02" fill="#dee0e0"/><rect x="26.42" y="177.81" width="90.71" height="8.77" fill="#dee0e0"/><rect x="26.42" y="188.97" width="90.71" height="8.77" fill="#dee0e0"/><rect x="26.42" y="200.68" width="90.71" height="8.77" fill="#dee0e0"/><rect x="26.42" y="212.38" width="90.71" height="8.77" fill="#dee0e0"/><rect x="391.74" y="73" width="90.71" height="8.77" fill="#dee0e0"/><rect x="391.74" y="84.16" width="90.71" height="8.77" fill="#dee0e0"/><rect x="391.74" y="95.87" width="90.71" height="8.77" fill="#dee0e0"/><rect x="391.74" y="107.57" width="90.71" height="8.77" fill="#dee0e0"/><rect x="137.41" y="73" width="226.77" height="115.76" fill="#dee0e0"/><rect x="137.41" y="206.04" width="226.77" height="154.65" fill="#dee0e0"/></svg>