<?xml version="1.0" encoding="utf-8"?>
<!-- Generator: Adobe Illustrator 19.2.0, SVG Export Plug-In . SVG Version: 6.00 Build 0)  -->
<svg version="1.1" xmlns="http://www.w3.org/2000/svg" xmlns:xlink="http://www.w3.org/1999/xlink" x="0px" y="0px"
	 viewBox="0 0 800 600" style="enable-background:new 0 0 800 600;" xml:space="preserve">
<style type="text/css">
	.st0{fill:#FF8A65;}
	.st1{fill:#F7D6D2;}
	.st2{fill:#D4D7D8;}
	.st3{fill:#C1C4C6;}
	.st4{fill:#DCE0E2;}
	.st5{fill:#E3E7E8;}
	.st6{fill:#EAEEEF;}
	.st7{fill:#E0BFBD;}
</style>
<g id="Arm">
	<rect x="507.2" y="428.4" class="st0" width="90.1" height="171.6"/>
	<rect x="507.2" y="248.7" class="st1" width="90.1" height="179.8"/>
</g>
<g id="Dumbbell">
	<g>
		<rect x="439.6" y="185.6" class="st2" width="112.6" height="63.1"/>
		<rect x="427.9" y="185.6" class="st3" width="13.5" height="63.1"/>
		<path class="st4" d="M424.6,329.7h-15c-8.3,0-15-6.7-15-15V119.5c0-8.3,6.7-15,15-15h15c8.3,0,15,6.7,15,15v195.2
			C439.6,323,432.9,329.7,424.6,329.7z"/>
		<path class="st3" d="M382.9,291.6L382.9,291.6v-149l0,0c7.5,0,13.5,6.1,13.5,13.5v121.9C396.4,285.6,390.4,291.6,382.9,291.6z"/>
		<path class="st5" d="M379.6,296h-15c-8.3,0-15-6.7-15-15V153.3c0-8.3,6.7-15,15-15h15c8.3,0,15,6.7,15,15V281
			C394.6,289.2,387.9,296,379.6,296z"/>
		<path class="st3" d="M337.8,257.8L337.8,257.8v-81.4l0,0c7.5,0,13.5,6.1,13.5,13.5v54.4C351.4,251.8,345.3,257.8,337.8,257.8z"/>
		<path class="st6" d="M334.6,262.2h-15c-8.3,0-15-6.7-15-15v-60.1c0-8.3,6.7-15,15-15h15c8.3,0,15,6.7,15,15v60.1
			C349.6,255.5,342.8,262.2,334.6,262.2z"/>
		
			<rect x="552.3" y="185.6" transform="matrix(-1 8.977828e-011 -8.977828e-011 -1 1217.1267 434.2535)" class="st2" width="112.6" height="63.1"/>
		
			<rect x="663.1" y="185.6" transform="matrix(-1 8.978361e-011 -8.978361e-011 -1 1339.6462 434.2535)" class="st3" width="13.5" height="63.1"/>
		<path class="st4" d="M679.9,104.5h15c8.3,0,15,6.7,15,15v195.2c0,8.3-6.7,15-15,15h-15c-8.3,0-15-6.7-15-15V119.5
			C664.9,111.2,671.6,104.5,679.9,104.5z"/>
		<path class="st3" d="M721.6,142.6L721.6,142.6v149l0,0c-7.5,0-13.5-6.1-13.5-13.5V156.2C708.1,148.7,714.2,142.6,721.6,142.6z"/>
		<path class="st5" d="M724.9,138.3h15c8.3,0,15,6.7,15,15V281c0,8.3-6.7,15-15,15h-15c-8.3,0-15-6.7-15-15V153.3
			C709.9,145,716.6,138.3,724.9,138.3z"/>
		<path class="st3" d="M766.7,176.4L766.7,176.4l0,81.4h0c-7.5,0-13.5-6.1-13.5-13.5v-54.4C753.2,182.5,759.2,176.4,766.7,176.4z"/>
		<path class="st6" d="M770,172.1h15c8.3,0,15,6.7,15,15v60.1c0,8.3-6.7,15-15,15h-15c-8.3,0-15-6.7-15-15v-60.1
			C755,178.8,761.7,172.1,770,172.1z"/>
	</g>
</g>
<g id="Hand">
	<g>
		<circle class="st7" cx="552.3" cy="219.6" r="53"/>
		<circle class="st1" cx="552.3" cy="212.2" r="53"/>
		<path class="st7" d="M552.5,268.4H552c-1.9,0-3.5-1.6-3.5-3.5v-19.5c0-1.9,1.6-3.5,3.5-3.5h0.4c1.9,0,3.5,1.6,3.5,3.5v19.5
			C556,266.8,554.4,268.4,552.5,268.4z"/>
		<path class="st7" d="M536,268.3l-0.4-0.1c-1.9-0.2-3.3-2-3-3.9l2.4-19.3c0.2-1.9,2-3.3,3.9-3l0.4,0.1c1.9,0.2,3.3,2,3,3.9
			l-2.4,19.3C539.7,267.2,537.9,268.5,536,268.3z"/>
		<path class="st7" d="M568.9,268.3l-0.4,0.1c-1.9,0.2-3.7-1.1-3.9-3l-2.4-19.3c-0.2-1.9,1.1-3.7,3-3.9l0.4-0.1
			c1.9-0.2,3.7,1.1,3.9,3l2.4,19.3C572.2,266.3,570.8,268,568.9,268.3z"/>
	</g>
</g>
</svg>
