<?xml version="1.0" encoding="utf-8"?>
<!-- Generator: Adobe Illustrator 19.2.0, SVG Export Plug-In . SVG Version: 6.00 Build 0)  -->
<svg version="1.1" xmlns="http://www.w3.org/2000/svg" xmlns:xlink="http://www.w3.org/1999/xlink" x="0px" y="0px"
	 viewBox="0 0 800 600" style="enable-background:new 0 0 800 600;" xml:space="preserve">
<style type="text/css">
	.st0{fill:#212121;}
	.st1{fill:#DBB574;}
	.st2{opacity:7.000000e-002;}
	.st3{fill:#FFFFFF;}
	.st4{fill:none;stroke:#4C3B27;stroke-width:8;stroke-linecap:round;stroke-linejoin:round;stroke-miterlimit:10;}
	.st5{fill:#34495E;}
</style>
<g id="Layer_3">
</g>
<g id="Selynna">
</g>
<g id="Hair">
	<circle class="st0" cx="208.6" cy="211" r="106.5"/>
	<path class="st0" d="M301.4,312c19.6,19.6,42.3,149.4,42.3,149.4s-16.8,24.5-60.8-19.6s-74.2-134.4-74.2-134.4"/>
	<path class="st1" d="M254.9,366.3h-0.2c-12.9,4.5-28.9,7.2-46.1,7.2s-33.1-2.7-46.1-7.2h-0.2c5.3,80-23.1,105.1-23.1,105.1
		s19.6,14,69.3,13.7s69.3-13.7,69.3-13.7S249.6,446.3,254.9,366.3z"/>
	<path class="st2" d="M162.2,404.4c23.7,5.6,56.1,8.7,93,0.3c-0.6-8.4-0.5-17.7,0.3-28.2h-0.2c-13.1,3.8-29.2,6.1-46.6,6.1
		s-33.5-2.3-46.6-6.1h-0.2C162.7,386.8,162.7,396.1,162.2,404.4z"/>
	<path class="st1" d="M212.6,392h-8c-48.8,0-88.3-39.5-88.3-88.3v-68.4c0-27.7,22.4-50.1,50.1-50.1h84.4c27.7,0,50.1,22.4,50.1,50.1
		v68.4C301,352.4,261.4,392,212.6,392z"/>
	<path class="st1" d="M212.1,329.3h-6.9c-41.8,0-75.6-33.9-75.6-75.6v-51.5c0-20.7,16.8-37.4,37.4-37.4h83.3
		c20.7,0,37.4,16.8,37.4,37.4v51.5C287.7,295.4,253.8,329.3,212.1,329.3z"/>
	<g>
		<path class="st1" d="M119.4,273.4c-1.2,6.4-5.6,11.8-11.8,13.9c-2.5,0.8-5.1,1.1-7.6,0c-7.8-3.4-12.7-55.1-6.2-59.8
			c6.5-4.7,16.8-3,24.2,10.8C123.2,247.7,121.2,264,119.4,273.4z"/>
		<path class="st1" d="M297.8,273.4c1.2,6.4,5.6,11.8,11.8,13.9c2.5,0.8,5.1,1.1,7.6,0c7.8-3.4,12.7-55.1,6.2-59.8
			c-6.5-4.7-16.8-3-24.2,10.8C294,247.7,296.1,264,297.8,273.4z"/>
	</g>
	<g>
		<circle class="st0" cx="168.3" cy="268.3" r="11"/>
		<circle class="st3" cx="165.9" cy="266.5" r="4.4"/>
		<circle class="st0" cx="248.1" cy="268.9" r="11"/>
		<circle class="st3" cx="245.7" cy="267" r="4.4"/>
		<path class="st4" d="M149.1,240.6c0-3.9,8.6-7.1,19.3-7.1c10.6,0,19.3,3.2,19.3,7.1"/>
		<path class="st4" d="M229.7,240.6c0-3.9,8.6-7.1,19.3-7.1c10.6,0,19.3,3.2,19.3,7.1"/>
	</g>
	<path class="st3" d="M183.6,329.3h50c3.5,0,6.3,2.8,6.3,6.3v1.5c0,14.2-11.5,25.7-25.7,25.7h-11.1c-14.2,0-25.7-11.5-25.7-25.7
		v-1.5C177.4,332.1,180.2,329.3,183.6,329.3z"/>
	<g>
		<circle class="st0" cx="201.3" cy="299.4" r="2.7"/>
		<circle class="st0" cx="216" cy="299.4" r="2.7"/>
	</g>
	<path class="st5" d="M208.6,429.9C93.4,429.9,0,481.4,0,544.9V600h417.3v-55.1C417.3,481.4,323.9,429.9,208.6,429.9z"/>
	<ellipse class="st1" cx="208.6" cy="438.4" rx="52.5" ry="20.9"/>
	<path class="st0" d="M301.1,235.1c-49.4,0-79.5-64.6-79.5-64.6s-1.8,40.5-37.6,51.2c0,0,20.1-26.7,14.5-51.2c0,0-16,64.6-82.5,64.6
		c0,0-10-93.2,93.2-93.2C311.1,141.9,301.1,235.1,301.1,235.1z"/>
</g>
</svg>
