<?xml version="1.0" encoding="utf-8"?>
<!-- Generator: Adobe Illustrator 19.2.0, SVG Export Plug-In . SVG Version: 6.00 Build 0)  -->
<svg version="1.1" id="Layer_1" xmlns="http://www.w3.org/2000/svg" xmlns:xlink="http://www.w3.org/1999/xlink" x="0px" y="0px"
	 viewBox="0 0 800 600" style="enable-background:new 0 0 800 600;" xml:space="preserve">
<style type="text/css">
	.st0{fill:#7986CB;}
	.st1{fill:#ECF0F1;}
	.st2{fill:#333333;}
	.st3{fill:#E57373;}
</style>
<circle class="st0" cx="613.5" cy="300" r="186.5"/>
<circle class="st1" cx="613.5" cy="300" r="152.3"/>
<path class="st2" d="M517.8,395.7L517.8,395.7c-1.8-1.8-1.8-4.8,0-6.7l86.2-86.2c1.8-1.8,4.8-1.8,6.7,0l0,0c1.8,1.8,1.8,4.8,0,6.7
	l-86.2,86.2C522.6,397.5,519.7,397.5,517.8,395.7z"/>
<path class="st2" d="M613.5,222.4L613.5,222.4c2.2,0,4,1.8,4,4V298c0,2.2-1.8,4-4,4l0,0c-2.2,0-4-1.8-4-4v-71.7
	C609.5,224.1,611.3,222.4,613.5,222.4z"/>
<path class="st3" d="M709.4,395.4L709.4,395.4c-1.5,1.5-4.1,1.5-5.6,0L597.2,288.8c-1.5-1.5-1.5-4.1,0-5.6l0,0
	c1.5-1.5,4.1-1.5,5.6,0l106.6,106.6C710.9,391.4,710.9,393.9,709.4,395.4z"/>
<circle class="st0" cx="613.5" cy="300" r="8.7"/>
</svg>
