<svg id="Layer_1" data-name="Layer 1" xmlns="http://www.w3.org/2000/svg" viewBox="0 0 374.03 373.03"><title>Puzzles</title><path d="M594.22,148.31v-21.4a13.42,13.42,0,0,0-13.42-13.42H439.4A13.42,13.42,0,0,0,426,126.91v141.4a13.42,13.42,0,0,0,13.42,13.42h21.4a14.06,14.06,0,0,0,13.45-10.32,37.3,37.3,0,0,1,71.69,0,14.06,14.06,0,0,0,13.45,10.32h21.4a13.42,13.42,0,0,0,13.42-13.42V246.9a14.06,14.06,0,0,1,10.32-13.45,37.3,37.3,0,0,0,0-71.69A14.06,14.06,0,0,1,594.22,148.31Z" transform="translate(-425.97 -113.49)" fill="#90caf9"/><path d="M765.17,281.73h21.4A13.42,13.42,0,0,0,800,268.31V126.91a13.42,13.42,0,0,0-13.42-13.42H645.18a13.42,13.42,0,0,0-13.42,13.42v21.4a14.06,14.06,0,0,0,10.32,13.45,37.3,37.3,0,0,1,0,71.69,14.06,14.06,0,0,0-10.32,13.45v21.4a13.42,13.42,0,0,0,13.42,13.42h21.4A14.06,14.06,0,0,1,680,292.05a37.3,37.3,0,0,0,71.69,0A14.06,14.06,0,0,1,765.17,281.73Z" transform="translate(-425.97 -113.49)" fill="#c5e1a5"/><path d="M631.76,451.69v21.4a13.42,13.42,0,0,0,13.42,13.42h141.4A13.42,13.42,0,0,0,800,473.09V331.69a13.42,13.42,0,0,0-13.42-13.42h-21.4a14.06,14.06,0,0,0-13.45,10.32,37.3,37.3,0,0,1-71.69,0,14.06,14.06,0,0,0-13.45-10.32h-21.4a13.42,13.42,0,0,0-13.42,13.42v21.4a14.06,14.06,0,0,1-10.32,13.45,37.3,37.3,0,0,0,0,71.69A14.06,14.06,0,0,1,631.76,451.69Z" transform="translate(-425.97 -113.49)" fill="#ffab91"/><path d="M460.8,318.27H439.4A13.42,13.42,0,0,0,426,331.69v141.4a13.42,13.42,0,0,0,13.42,13.42h141.4a13.42,13.42,0,0,0,13.42-13.42v-21.4a14.06,14.06,0,0,0-10.32-13.45,37.3,37.3,0,0,1,0-71.69,14.06,14.06,0,0,0,10.32-13.45v-21.4a13.42,13.42,0,0,0-13.42-13.42h-21.4a14.06,14.06,0,0,1-13.45-10.32,37.3,37.3,0,0,0-71.69,0A14.06,14.06,0,0,1,460.8,318.27Z" transform="translate(-425.97 -113.49)" fill="#ef9a9a"/></svg>