<?xml version="1.0" encoding="utf-8"?>
<!-- Generator: Adobe Illustrator 19.2.0, SVG Export Plug-In . SVG Version: 6.00 Build 0)  -->
<svg version="1.1" id="Layer_1" xmlns="http://www.w3.org/2000/svg" xmlns:xlink="http://www.w3.org/1999/xlink" x="0px" y="0px"
	 viewBox="0 0 800 600" style="enable-background:new 0 0 800 600;" xml:space="preserve">
<style type="text/css">
	.st0{fill:#90CAF9;}
	.st1{fill:#C5E1A5;}
	.st2{fill:#FFAB91;}
	.st3{fill:#EF9A9A;}
</style>
<g>
	<path class="st0" d="M594.2,148.3v-21.4c0-7.4-6-13.4-13.4-13.4H439.4c-7.4,0-13.4,6-13.4,13.4v141.4c0,7.4,6,13.4,13.4,13.4h21.4
		c6.3,0,11.7-4.3,13.5-10.3c4.5-15.6,18.8-27,35.8-27s31.4,11.4,35.8,27c1.7,6.1,7.1,10.3,13.5,10.3h21.4c7.4,0,13.4-6,13.4-13.4
		v-21.4c0-6.3,4.3-11.7,10.3-13.5c15.6-4.5,27-18.8,27-35.8s-11.4-31.4-27-35.8C598.5,160,594.2,154.6,594.2,148.3z"/>
	<path class="st1" d="M765.2,281.7h21.4c7.4,0,13.4-6,13.4-13.4V126.9c0-7.4-6-13.4-13.4-13.4H645.2c-7.4,0-13.4,6-13.4,13.4v21.4
		c0,6.3,4.3,11.7,10.3,13.5c15.6,4.5,27,18.8,27,35.8s-11.4,31.4-27,35.8c-6.1,1.7-10.3,7.1-10.3,13.5v21.4c0,7.4,6,13.4,13.4,13.4
		h21.4c6.3,0,11.7,4.3,13.5,10.3c4.5,15.6,18.8,27,35.8,27s31.4-11.4,35.8-27C753.5,286,758.9,281.7,765.2,281.7z"/>
	<path class="st2" d="M631.8,451.7v21.4c0,7.4,6,13.4,13.4,13.4h141.4c7.4,0,13.4-6,13.4-13.4V331.7c0-7.4-6-13.4-13.4-13.4h-21.4
		c-6.3,0-11.7,4.3-13.5,10.3c-4.5,15.6-18.8,27-35.8,27s-31.4-11.4-35.8-27c-1.7-6.1-7.1-10.3-13.5-10.3h-21.4
		c-7.4,0-13.4,6-13.4,13.4v21.4c0,6.3-4.3,11.7-10.3,13.5c-15.6,4.5-27,18.8-27,35.8s11.4,31.4,27,35.8
		C627.5,440,631.8,445.4,631.8,451.7z"/>
	<path class="st3" d="M460.8,318.3h-21.4c-7.4,0-13.4,6-13.4,13.4v141.4c0,7.4,6,13.4,13.4,13.4h141.4c7.4,0,13.4-6,13.4-13.4v-21.4
		c0-6.3-4.3-11.7-10.3-13.5c-15.6-4.5-27-18.8-27-35.8s11.4-31.4,27-35.8c6.1-1.7,10.3-7.1,10.3-13.5v-21.4c0-7.4-6-13.4-13.4-13.4
		h-21.4c-6.3,0-11.7-4.3-13.5-10.3c-4.5-15.6-18.8-27-35.8-27s-31.4,11.4-35.8,27C472.5,314,467.1,318.3,460.8,318.3z"/>
</g>
</svg>
