<?xml version="1.0" encoding="utf-8"?>
<!-- Generator: Adobe Illustrator 19.2.0, SVG Export Plug-In . SVG Version: 6.00 Build 0)  -->
<svg version="1.1" id="Layer_1" xmlns="http://www.w3.org/2000/svg" xmlns:xlink="http://www.w3.org/1999/xlink" x="0px" y="0px"
	 viewBox="0 0 800 600" style="enable-background:new 0 0 800 600;" xml:space="preserve">
<style type="text/css">
	.st0{fill:#ECF0F1;}
</style>
<ellipse transform="matrix(0.7071 -0.7071 0.7071 0.7071 -255.523 213.2952)" class="st0" cx="129.7" cy="415.1" rx="20" ry="20"/>
<ellipse transform="matrix(0.7071 -0.7071 0.7071 0.7071 17.1513 343.8858)" class="st0" cx="423.7" cy="151.2" rx="15.4" ry="15.4"/>
<ellipse transform="matrix(0.7071 -0.7071 0.7071 0.7071 -179.7487 101.3061)" class="st0" cx="32.4" cy="267.6" rx="15.4" ry="15.4"/>
<ellipse transform="matrix(0.9984 -5.652162e-002 5.652162e-002 0.9984 -6.8349 18.3037)" class="st0" cx="320.2" cy="130" rx="23.6" ry="23.6"/>
<g>
	<circle class="st0" cx="368.8" cy="267.6" r="28.1"/>
	<circle class="st0" cx="323.7" cy="269.9" r="28.1"/>
	<circle class="st0" cx="285.4" cy="273.7" r="28.1"/>
	
		<ellipse transform="matrix(0.7071 -0.7071 0.7071 0.7071 -91.7018 269.8106)" class="st0" cx="279.8" cy="245.6" rx="28.1" ry="28.1"/>
	
		<ellipse transform="matrix(0.7071 -0.7071 0.7071 0.7071 -124.0533 389.58)" class="st0" cx="408.2" cy="344.5" rx="21.9" ry="21.9"/>
	
		<ellipse transform="matrix(0.7071 -0.7071 0.7071 0.7071 -89.832 308.8809)" class="st0" cx="327.9" cy="262.9" rx="28.1" ry="28.1"/>
	<circle class="st0" cx="296.6" cy="270" r="28.1"/>
	<circle class="st0" cx="251.5" cy="272.3" r="28.1"/>
	<circle class="st0" cx="213.1" cy="276.1" r="28.1"/>
	
		<ellipse transform="matrix(0.7071 -0.7071 0.7071 0.7071 -114.5554 219.4273)" class="st0" cx="207.6" cy="248" rx="28.1" ry="28.1"/>
	
		<ellipse transform="matrix(0.7071 -0.7071 0.7071 0.7071 -87.3473 259.2978)" class="st0" cx="269.3" cy="235.1" rx="28.1" ry="28.1"/>
	
		<ellipse transform="matrix(0.7071 -0.7071 0.7071 0.7071 -95.6069 313.8595)" class="st0" cx="331.1" cy="272.3" rx="28.1" ry="28.1"/>
	
		<ellipse transform="matrix(0.7071 -0.7071 0.7071 0.7071 -106.4 231.5974)" class="st0" cx="226.4" cy="244.2" rx="28.1" ry="28.1"/>
	
		<ellipse transform="matrix(0.7071 -0.7071 0.7071 0.7071 -96.7222 262.4803)" class="st0" cx="268.5" cy="248" rx="28.1" ry="28.1"/>
	<circle class="st0" cx="368.8" cy="320.3" r="28.1"/>
	<circle class="st0" cx="321.7" cy="314.1" r="28.1"/>
	<circle class="st0" cx="283.3" cy="317.9" r="28.1"/>
	
		<ellipse transform="matrix(0.7071 -0.7071 0.7071 0.7071 -123.5499 281.3255)" class="st0" cx="277.8" cy="289.8" rx="28.1" ry="28.1"/>
	<ellipse transform="matrix(0.7071 -0.7071 0.7071 0.7071 -77.5269 332.9517)" class="st0" cx="363.1" cy="260.1" rx="24" ry="24"/>
	
		<ellipse transform="matrix(0.7071 -0.7071 0.7071 0.7071 -53.1706 411.5197)" class="st0" cx="470.2" cy="269.9" rx="18.7" ry="18.7"/>
	
		<ellipse transform="matrix(0.7071 -0.7071 0.7071 0.7071 -123.2362 251.2832)" class="st0" cx="241.7" cy="274.4" rx="28.1" ry="28.1"/>
	
		<ellipse transform="matrix(0.7071 -0.7071 0.7071 0.7071 -105.7168 324.3785)" class="st0" cx="338.7" cy="289.8" rx="28.1" ry="28.1"/>
	<circle class="st0" cx="294.6" cy="314.2" r="28.1"/>
	<circle class="st0" cx="249.5" cy="316.5" r="28.1"/>
	<circle class="st0" cx="211.1" cy="320.3" r="28.1"/>
	
		<ellipse transform="matrix(0.7071 -0.7071 0.7071 0.7071 -146.4035 230.9422)" class="st0" cx="205.6" cy="292.2" rx="28.1" ry="28.1"/>
	
		<ellipse transform="matrix(0.7071 -0.7071 0.7071 0.7071 -66.2733 280.3434)" class="st0" cx="305.3" cy="220.2" rx="28.1" ry="28.1"/>
	
		<ellipse transform="matrix(0.7071 -0.7071 0.7071 0.7071 -83.9976 201.994)" class="st0" cx="201.8" cy="202.4" rx="13.8" ry="13.8"/>
	
		<ellipse transform="matrix(0.7071 -0.7071 0.7071 0.7071 -127.455 325.3744)" class="st0" cx="329" cy="316.5" rx="28.1" ry="28.1"/>
	<ellipse transform="matrix(0.7071 -0.7071 0.7071 0.7071 -137.8928 210.3956)" class="st0" cx="185" cy="271.6" rx="69" ry="69"/>
	
		<ellipse transform="matrix(0.7071 -0.7071 0.7071 0.7071 -128.5703 273.9953)" class="st0" cx="266.5" cy="292.2" rx="28.1" ry="28.1"/>
	<circle class="st0" cx="379.8" cy="367.3" r="28.1"/>
	<circle class="st0" cx="327" cy="356.3" r="28.1"/>
	<circle class="st0" cx="288.6" cy="360" r="28.1"/>
	
		<ellipse transform="matrix(0.7071 -0.7071 0.7071 0.7071 -151.7917 297.3933)" class="st0" cx="283.1" cy="331.9" rx="28.1" ry="28.1"/>
	
		<ellipse transform="matrix(0.8252 -0.5649 0.5649 0.8252 -76.926 271.5616)" class="st0" cx="400.3" cy="260.1" rx="20.3" ry="20.3"/>
	
		<ellipse transform="matrix(0.7071 -0.7071 0.7071 0.7071 -203.2852 271.7285)" class="st0" cx="226.4" cy="381.3" rx="28.1" ry="28.1"/>
	
		<ellipse transform="matrix(0.7071 -0.7071 0.7071 0.7071 -151.478 267.351)" class="st0" cx="247" cy="316.5" rx="28.1" ry="28.1"/>
	
		<ellipse transform="matrix(0.7071 -0.7071 0.7071 0.7071 -133.9586 340.4464)" class="st0" cx="344" cy="331.9" rx="28.1" ry="28.1"/>
	<circle class="st0" cx="299.8" cy="356.4" r="28.1"/>
	<circle class="st0" cx="254.7" cy="358.7" r="28.1"/>
	<circle class="st0" cx="145.9" cy="201.1" r="28.1"/>
	
		<ellipse transform="matrix(0.7071 -0.7071 0.7071 0.7071 -187.9756 169.8477)" class="st0" cx="111" cy="311.8" rx="28.1" ry="28.1"/>
	
		<ellipse transform="matrix(0.7071 -0.7071 0.7071 0.7071 -194.1104 343.2261)" class="st0" cx="317.3" cy="405.9" rx="21.1" ry="21.1"/>
	
		<ellipse transform="matrix(0.7071 -0.7071 0.7071 0.7071 -176.4023 350.3885)" class="st0" cx="334.8" cy="388.1" rx="28.1" ry="28.1"/>
	
		<ellipse transform="matrix(0.7071 -0.7071 0.7071 0.7071 -181.7921 208.0498)" class="st0" cx="160.2" cy="323.5" rx="28.1" ry="28.1"/>
	
		<ellipse transform="matrix(0.7071 -0.7071 0.7071 0.7071 -179.7303 248.2527)" class="st0" cx="209.8" cy="341.1" rx="28.1" ry="28.1"/>
</g>
<g>
	<circle class="st0" cx="368.8" cy="267.6" r="28.1"/>
	<circle class="st0" cx="323.7" cy="269.9" r="28.1"/>
	<circle class="st0" cx="285.4" cy="273.7" r="28.1"/>
	
		<ellipse transform="matrix(0.7071 -0.7071 0.7071 0.7071 -91.7018 269.8106)" class="st0" cx="279.8" cy="245.6" rx="28.1" ry="28.1"/>
	
		<ellipse transform="matrix(0.7071 -0.7071 0.7071 0.7071 -124.0533 389.58)" class="st0" cx="408.2" cy="344.5" rx="21.9" ry="21.9"/>
	
		<ellipse transform="matrix(0.7071 -0.7071 0.7071 0.7071 -89.832 308.8809)" class="st0" cx="327.9" cy="262.9" rx="28.1" ry="28.1"/>
	<circle class="st0" cx="296.6" cy="270" r="28.1"/>
	<circle class="st0" cx="251.5" cy="272.3" r="28.1"/>
	<circle class="st0" cx="213.1" cy="276.1" r="28.1"/>
	
		<ellipse transform="matrix(0.7071 -0.7071 0.7071 0.7071 -114.5554 219.4273)" class="st0" cx="207.6" cy="248" rx="28.1" ry="28.1"/>
	
		<ellipse transform="matrix(0.7071 -0.7071 0.7071 0.7071 -87.3473 259.2978)" class="st0" cx="269.3" cy="235.1" rx="28.1" ry="28.1"/>
	
		<ellipse transform="matrix(0.7071 -0.7071 0.7071 0.7071 -95.6069 313.8595)" class="st0" cx="331.1" cy="272.3" rx="28.1" ry="28.1"/>
	
		<ellipse transform="matrix(0.7071 -0.7071 0.7071 0.7071 -106.4 231.5974)" class="st0" cx="226.4" cy="244.2" rx="28.1" ry="28.1"/>
	
		<ellipse transform="matrix(0.7071 -0.7071 0.7071 0.7071 -96.7222 262.4803)" class="st0" cx="268.5" cy="248" rx="28.1" ry="28.1"/>
	<circle class="st0" cx="368.8" cy="320.3" r="28.1"/>
	<circle class="st0" cx="321.7" cy="314.1" r="28.1"/>
	<circle class="st0" cx="283.3" cy="317.9" r="28.1"/>
	
		<ellipse transform="matrix(0.7071 -0.7071 0.7071 0.7071 -123.5499 281.3255)" class="st0" cx="277.8" cy="289.8" rx="28.1" ry="28.1"/>
	<ellipse transform="matrix(0.7071 -0.7071 0.7071 0.7071 -77.5269 332.9517)" class="st0" cx="363.1" cy="260.1" rx="24" ry="24"/>
	
		<ellipse transform="matrix(0.7071 -0.7071 0.7071 0.7071 -53.1706 411.5197)" class="st0" cx="470.2" cy="269.9" rx="18.7" ry="18.7"/>
	
		<ellipse transform="matrix(0.7071 -0.7071 0.7071 0.7071 -123.2362 251.2832)" class="st0" cx="241.7" cy="274.4" rx="28.1" ry="28.1"/>
	
		<ellipse transform="matrix(0.7071 -0.7071 0.7071 0.7071 -105.7168 324.3785)" class="st0" cx="338.7" cy="289.8" rx="28.1" ry="28.1"/>
	<circle class="st0" cx="294.6" cy="314.2" r="28.1"/>
	<circle class="st0" cx="249.5" cy="316.5" r="28.1"/>
	<circle class="st0" cx="211.1" cy="320.3" r="28.1"/>
	
		<ellipse transform="matrix(0.7071 -0.7071 0.7071 0.7071 -146.4035 230.9422)" class="st0" cx="205.6" cy="292.2" rx="28.1" ry="28.1"/>
	
		<ellipse transform="matrix(0.7071 -0.7071 0.7071 0.7071 -66.2733 280.3434)" class="st0" cx="305.3" cy="220.2" rx="28.1" ry="28.1"/>
	
		<ellipse transform="matrix(0.7071 -0.7071 0.7071 0.7071 -83.9976 201.994)" class="st0" cx="201.8" cy="202.4" rx="13.8" ry="13.8"/>
	
		<ellipse transform="matrix(0.7071 -0.7071 0.7071 0.7071 -127.455 325.3744)" class="st0" cx="329" cy="316.5" rx="28.1" ry="28.1"/>
	<ellipse transform="matrix(0.7071 -0.7071 0.7071 0.7071 -137.8928 210.3956)" class="st0" cx="185" cy="271.6" rx="69" ry="69"/>
	
		<ellipse transform="matrix(0.7071 -0.7071 0.7071 0.7071 -128.5703 273.9953)" class="st0" cx="266.5" cy="292.2" rx="28.1" ry="28.1"/>
	<circle class="st0" cx="379.8" cy="367.3" r="28.1"/>
	<circle class="st0" cx="327" cy="356.3" r="28.1"/>
	<circle class="st0" cx="288.6" cy="360" r="28.1"/>
	
		<ellipse transform="matrix(0.7071 -0.7071 0.7071 0.7071 -151.7917 297.3933)" class="st0" cx="283.1" cy="331.9" rx="28.1" ry="28.1"/>
	
		<ellipse transform="matrix(0.8252 -0.5649 0.5649 0.8252 -76.926 271.5616)" class="st0" cx="400.3" cy="260.1" rx="20.3" ry="20.3"/>
	
		<ellipse transform="matrix(0.7071 -0.7071 0.7071 0.7071 -203.2852 271.7285)" class="st0" cx="226.4" cy="381.3" rx="28.1" ry="28.1"/>
	
		<ellipse transform="matrix(0.7071 -0.7071 0.7071 0.7071 -151.478 267.351)" class="st0" cx="247" cy="316.5" rx="28.1" ry="28.1"/>
	
		<ellipse transform="matrix(0.7071 -0.7071 0.7071 0.7071 -133.9586 340.4464)" class="st0" cx="344" cy="331.9" rx="28.1" ry="28.1"/>
	<circle class="st0" cx="299.8" cy="356.4" r="28.1"/>
	<circle class="st0" cx="254.7" cy="358.7" r="28.1"/>
	<circle class="st0" cx="145.9" cy="201.1" r="28.1"/>
	
		<ellipse transform="matrix(0.7071 -0.7071 0.7071 0.7071 -187.9756 169.8477)" class="st0" cx="111" cy="311.8" rx="28.1" ry="28.1"/>
	
		<ellipse transform="matrix(0.7071 -0.7071 0.7071 0.7071 -194.1104 343.2261)" class="st0" cx="317.3" cy="405.9" rx="21.1" ry="21.1"/>
	
		<ellipse transform="matrix(0.7071 -0.7071 0.7071 0.7071 -176.4023 350.3885)" class="st0" cx="334.8" cy="388.1" rx="28.1" ry="28.1"/>
	
		<ellipse transform="matrix(0.7071 -0.7071 0.7071 0.7071 -181.7921 208.0498)" class="st0" cx="160.2" cy="323.5" rx="28.1" ry="28.1"/>
	
		<ellipse transform="matrix(0.7071 -0.7071 0.7071 0.7071 -179.7303 248.2527)" class="st0" cx="209.8" cy="341.1" rx="28.1" ry="28.1"/>
</g>
</svg>
