<?xml version="1.0" encoding="utf-8"?>
<!-- Generator: Adobe Illustrator 19.2.0, SVG Export Plug-In . SVG Version: 6.00 Build 0)  -->
<svg version="1.1" id="Layer_1" xmlns="http://www.w3.org/2000/svg" xmlns:xlink="http://www.w3.org/1999/xlink" x="0px" y="0px"
	 viewBox="0 0 800 600" style="enable-background:new 0 0 800 600;" xml:space="preserve">
<style type="text/css">
	.st0{fill:#ECF0F1;}
</style>
<ellipse transform="matrix(0.7071 -0.7071 0.7071 0.7071 -279.8138 154.652)" class="st0" cx="46.8" cy="415.1" rx="20" ry="20"/>
<ellipse transform="matrix(0.7071 -0.7071 0.7071 0.7071 -7.1395 285.2426)" class="st0" cx="340.7" cy="151.2" rx="15.4" ry="15.4"/>
<ellipse transform="matrix(0.9984 -5.652162e-002 5.652162e-002 0.9984 -6.9675 13.6161)" class="st0" cx="237.2" cy="130" rx="23.6" ry="23.6"/>
<g>
	<circle class="st0" cx="285.9" cy="267.6" r="28.1"/>
	<circle class="st0" cx="240.8" cy="269.9" r="28.1"/>
	<circle class="st0" cx="202.4" cy="273.7" r="28.1"/>
	
		<ellipse transform="matrix(0.7071 -0.7071 0.7071 0.7071 -115.9926 211.1674)" class="st0" cx="196.9" cy="245.6" rx="28.1" ry="28.1"/>
	
		<ellipse transform="matrix(0.7071 -0.7071 0.7071 0.7071 -148.3441 330.9369)" class="st0" cx="325.3" cy="344.5" rx="21.9" ry="21.9"/>
	
		<ellipse transform="matrix(0.7071 -0.7071 0.7071 0.7071 -114.1228 250.2377)" class="st0" cx="245" cy="262.9" rx="28.1" ry="28.1"/>
	<circle class="st0" cx="213.6" cy="270" r="28.1"/>
	<circle class="st0" cx="168.6" cy="272.3" r="28.1"/>
	<circle class="st0" cx="130.2" cy="276.1" r="28.1"/>
	
		<ellipse transform="matrix(0.7071 -0.7071 0.7071 0.7071 -138.8462 160.7841)" class="st0" cx="124.7" cy="248" rx="28.1" ry="28.1"/>
	
		<ellipse transform="matrix(0.7071 -0.7071 0.7071 0.7071 -111.6381 200.6546)" class="st0" cx="186.4" cy="235.1" rx="28.1" ry="28.1"/>
	
		<ellipse transform="matrix(0.7071 -0.7071 0.7071 0.7071 -119.8977 255.2163)" class="st0" cx="248.1" cy="272.3" rx="28.1" ry="28.1"/>
	
		<ellipse transform="matrix(0.7071 -0.7071 0.7071 0.7071 -130.6908 172.9542)" class="st0" cx="143.4" cy="244.2" rx="28.1" ry="28.1"/>
	
		<ellipse transform="matrix(0.7071 -0.7071 0.7071 0.7071 -121.013 203.8372)" class="st0" cx="185.5" cy="248" rx="28.1" ry="28.1"/>
	<circle class="st0" cx="285.9" cy="320.3" r="28.1"/>
	<circle class="st0" cx="238.8" cy="314.1" r="28.1"/>
	<circle class="st0" cx="200.4" cy="317.9" r="28.1"/>
	
		<ellipse transform="matrix(0.7071 -0.7071 0.7071 0.7071 -147.8407 222.6823)" class="st0" cx="194.9" cy="289.8" rx="28.1" ry="28.1"/>
	
		<ellipse transform="matrix(0.7071 -0.7071 0.7071 0.7071 -101.8177 274.3086)" class="st0" cx="280.2" cy="260.1" rx="24" ry="24"/>
	
		<ellipse transform="matrix(0.7071 -0.7071 0.7071 0.7071 -77.4614 352.8765)" class="st0" cx="387.2" cy="269.9" rx="18.7" ry="18.7"/>
	
		<ellipse transform="matrix(0.7071 -0.7071 0.7071 0.7071 -147.527 192.64)" class="st0" cx="158.8" cy="274.4" rx="28.1" ry="28.1"/>
	
		<ellipse transform="matrix(0.7071 -0.7071 0.7071 0.7071 -130.0076 265.7354)" class="st0" cx="255.8" cy="289.8" rx="28.1" ry="28.1"/>
	<circle class="st0" cx="211.6" cy="314.2" r="28.1"/>
	<circle class="st0" cx="166.5" cy="316.5" r="28.1"/>
	<circle class="st0" cx="128.2" cy="320.3" r="28.1"/>
	
		<ellipse transform="matrix(0.7071 -0.7071 0.7071 0.7071 -170.6943 172.2991)" class="st0" cx="122.6" cy="292.2" rx="28.1" ry="28.1"/>
	
		<ellipse transform="matrix(0.7071 -0.7071 0.7071 0.7071 -90.5641 221.7003)" class="st0" cx="222.3" cy="220.2" rx="28.1" ry="28.1"/>
	
		<ellipse transform="matrix(0.7071 -0.7071 0.7071 0.7071 -108.2884 143.3508)" class="st0" cx="118.9" cy="202.4" rx="13.8" ry="13.8"/>
	
		<ellipse transform="matrix(0.7071 -0.7071 0.7071 0.7071 -151.7458 266.7313)" class="st0" cx="246.1" cy="316.5" rx="28.1" ry="28.1"/>
	
		<ellipse transform="matrix(0.7071 -0.7071 0.7071 0.7071 -162.1836 151.7524)" class="st0" cx="102.1" cy="271.6" rx="69" ry="69"/>
	
		<ellipse transform="matrix(0.7071 -0.7071 0.7071 0.7071 -152.8611 215.3521)" class="st0" cx="183.5" cy="292.2" rx="28.1" ry="28.1"/>
	<circle class="st0" cx="296.8" cy="367.3" r="28.1"/>
	<circle class="st0" cx="244.1" cy="356.3" r="28.1"/>
	<circle class="st0" cx="205.7" cy="360" r="28.1"/>
	
		<ellipse transform="matrix(0.7071 -0.7071 0.7071 0.7071 -176.0825 238.7502)" class="st0" cx="200.2" cy="331.9" rx="28.1" ry="28.1"/>
	
		<ellipse transform="matrix(0.8252 -0.5649 0.5649 0.8252 -91.4248 224.7143)" class="st0" cx="317.3" cy="260.1" rx="20.3" ry="20.3"/>
	
		<ellipse transform="matrix(0.7071 -0.7071 0.7071 0.7071 -227.576 213.0854)" class="st0" cx="143.4" cy="381.3" rx="28.1" ry="28.1"/>
	
		<ellipse transform="matrix(0.7071 -0.7071 0.7071 0.7071 -175.7688 208.7079)" class="st0" cx="164" cy="316.5" rx="28.1" ry="28.1"/>
	
		<ellipse transform="matrix(0.7071 -0.7071 0.7071 0.7071 -158.2494 281.8032)" class="st0" cx="261" cy="331.9" rx="28.1" ry="28.1"/>
	<circle class="st0" cx="216.9" cy="356.4" r="28.1"/>
	<circle class="st0" cx="171.8" cy="358.7" r="28.1"/>
	<circle class="st0" cx="62.9" cy="201.1" r="28.1"/>
	
		<ellipse transform="matrix(0.7071 -0.7071 0.7071 0.7071 -212.2663 111.2046)" class="st0" cx="28.1" cy="311.8" rx="28.1" ry="28.1"/>
	
		<ellipse transform="matrix(0.7071 -0.7071 0.7071 0.7071 -218.4012 284.5829)" class="st0" cx="234.3" cy="405.9" rx="21.1" ry="21.1"/>
	
		<ellipse transform="matrix(0.7071 -0.7071 0.7071 0.7071 -200.6931 291.7453)" class="st0" cx="251.8" cy="388.1" rx="28.1" ry="28.1"/>
	
		<ellipse transform="matrix(0.7071 -0.7071 0.7071 0.7071 -206.0829 149.4066)" class="st0" cx="77.3" cy="323.5" rx="28.1" ry="28.1"/>
	
		<ellipse transform="matrix(0.7071 -0.7071 0.7071 0.7071 -204.0211 189.6096)" class="st0" cx="126.9" cy="341.1" rx="28.1" ry="28.1"/>
</g>
</svg>
