<svg id="Layer_1" data-name="Layer 1" xmlns="http://www.w3.org/2000/svg" viewBox="0 0 471.89 328.71"><title>Shower</title><circle cx="129.71" cy="415.09" r="20.03" transform="translate(-272.49 106.89) rotate(-45)" fill="#ecf0f1"/><circle cx="423.68" cy="151.24" r="15.44" transform="translate(0.18 237.48) rotate(-45)" fill="#ecf0f1"/><circle cx="32.41" cy="267.63" r="15.44" transform="translate(-196.72 -5.1) rotate(-45)" fill="#ecf0f1"/><circle cx="320.16" cy="129.98" r="23.57" transform="translate(-23.8 -88.1) rotate(-3.24)" fill="#ecf0f1"/><circle cx="351.86" cy="161.22" r="28.1" fill="#ecf0f1"/><circle cx="306.77" cy="163.54" r="28.1" fill="#ecf0f1"/><circle cx="268.4" cy="167.3" r="28.1" fill="#ecf0f1"/><circle cx="279.84" cy="245.6" r="28.1" transform="translate(-108.67 163.4) rotate(-45)" fill="#ecf0f1"/><circle cx="408.24" cy="344.54" r="21.91" transform="translate(-141.02 283.17) rotate(-45)" fill="#ecf0f1"/><circle cx="327.94" cy="262.88" r="28.1" transform="translate(-106.8 202.47) rotate(-45)" fill="#ecf0f1"/><circle cx="279.61" cy="163.62" r="28.1" fill="#ecf0f1"/><circle cx="234.53" cy="165.93" r="28.1" fill="#ecf0f1"/><circle cx="196.16" cy="169.69" r="28.1" fill="#ecf0f1"/><circle cx="207.59" cy="247.99" r="28.1" transform="translate(-131.52 113.02) rotate(-45)" fill="#ecf0f1"/><circle cx="269.33" cy="235.09" r="28.1" transform="translate(-104.32 152.89) rotate(-45)" fill="#ecf0f1"/><circle cx="331.06" cy="272.34" r="28.1" transform="translate(-112.58 207.45) rotate(-45)" fill="#ecf0f1"/><circle cx="226.36" cy="244.23" r="28.1" transform="translate(-123.37 125.19) rotate(-45)" fill="#ecf0f1"/><circle cx="268.48" cy="247.99" r="28.1" transform="translate(-113.69 156.07) rotate(-45)" fill="#ecf0f1"/><circle cx="351.86" cy="213.89" r="28.1" fill="#ecf0f1"/><circle cx="304.75" cy="207.74" r="28.1" fill="#ecf0f1"/><circle cx="266.38" cy="211.5" r="28.1" fill="#ecf0f1"/><circle cx="277.81" cy="289.8" r="28.1" transform="translate(-140.52 174.92) rotate(-45)" fill="#ecf0f1"/><circle cx="363.14" cy="260.06" r="23.99" transform="translate(-94.5 226.55) rotate(-45)" fill="#ecf0f1"/><circle cx="470.16" cy="269.94" r="18.69" transform="translate(-70.14 305.11) rotate(-45)" fill="#ecf0f1"/><circle cx="241.71" cy="274.4" r="28.1" transform="translate(-140.2 144.88) rotate(-45)" fill="#ecf0f1"/><circle cx="338.7" cy="289.8" r="28.1" transform="translate(-122.69 217.97) rotate(-45)" fill="#ecf0f1"/><circle cx="277.59" cy="207.82" r="28.1" fill="#ecf0f1"/><circle cx="232.5" cy="210.13" r="28.1" fill="#ecf0f1"/><circle cx="194.13" cy="213.89" r="28.1" fill="#ecf0f1"/><circle cx="205.57" cy="292.2" r="28.1" transform="translate(-163.37 124.54) rotate(-45)" fill="#ecf0f1"/><circle cx="305.27" cy="220.17" r="28.1" transform="translate(-83.24 173.94) rotate(-45)" fill="#ecf0f1"/><circle cx="201.83" cy="202.39" r="13.82" transform="translate(-100.97 95.59) rotate(-45)" fill="#ecf0f1"/><circle cx="329.03" cy="316.54" r="28.1" transform="translate(-144.42 218.97) rotate(-45)" fill="#ecf0f1"/><circle cx="185.02" cy="271.65" r="68.99" transform="translate(-154.86 103.99) rotate(-45)" fill="#ecf0f1"/><circle cx="266.46" cy="292.2" r="28.1" transform="translate(-145.54 167.59) rotate(-45)" fill="#ecf0f1"/><circle cx="362.8" cy="260.86" r="28.1" fill="#ecf0f1"/><circle cx="310.02" cy="249.86" r="28.1" fill="#ecf0f1"/><circle cx="271.65" cy="253.62" r="28.1" fill="#ecf0f1"/><circle cx="283.09" cy="331.93" r="28.1" transform="translate(-168.76 190.99) rotate(-45)" fill="#ecf0f1"/><circle cx="400.26" cy="260.06" r="20.33" transform="translate(-93.89 165.16) rotate(-34.39)" fill="#ecf0f1"/><circle cx="226.36" cy="381.25" r="28.1" transform="translate(-220.25 165.32) rotate(-45)" fill="#ecf0f1"/><circle cx="246.98" cy="316.53" r="28.1" transform="translate(-168.45 160.95) rotate(-45)" fill="#ecf0f1"/><circle cx="343.98" cy="331.93" r="28.1" transform="translate(-150.93 234.04) rotate(-45)" fill="#ecf0f1"/><circle cx="282.87" cy="249.94" r="28.1" fill="#ecf0f1"/><circle cx="237.78" cy="252.26" r="28.1" fill="#ecf0f1"/><circle cx="128.89" cy="94.65" r="28.1" fill="#ecf0f1"/><circle cx="111.04" cy="311.83" r="28.1" transform="translate(-204.94 63.44) rotate(-45)" fill="#ecf0f1"/><circle cx="317.26" cy="405.93" r="21.12" transform="translate(-211.08 236.82) rotate(-45)" fill="#ecf0f1"/><circle cx="334.76" cy="388.13" r="28.1" transform="translate(-193.37 243.98) rotate(-45)" fill="#ecf0f1"/><circle cx="160.24" cy="323.47" r="28.1" transform="translate(-198.76 101.64) rotate(-45)" fill="#ecf0f1"/><circle cx="209.8" cy="341.08" r="28.1" transform="translate(-196.7 141.85) rotate(-45)" fill="#ecf0f1"/><circle cx="351.86" cy="161.22" r="28.1" fill="#ecf0f1"/><circle cx="306.77" cy="163.54" r="28.1" fill="#ecf0f1"/><circle cx="268.4" cy="167.3" r="28.1" fill="#ecf0f1"/><circle cx="279.84" cy="245.6" r="28.1" transform="translate(-108.67 163.4) rotate(-45)" fill="#ecf0f1"/><circle cx="408.24" cy="344.54" r="21.91" transform="translate(-141.02 283.17) rotate(-45)" fill="#ecf0f1"/><circle cx="327.94" cy="262.88" r="28.1" transform="translate(-106.8 202.47) rotate(-45)" fill="#ecf0f1"/><circle cx="279.61" cy="163.62" r="28.1" fill="#ecf0f1"/><circle cx="234.53" cy="165.93" r="28.1" fill="#ecf0f1"/><circle cx="196.16" cy="169.69" r="28.1" fill="#ecf0f1"/><circle cx="207.59" cy="247.99" r="28.1" transform="translate(-131.52 113.02) rotate(-45)" fill="#ecf0f1"/><circle cx="269.33" cy="235.09" r="28.1" transform="translate(-104.32 152.89) rotate(-45)" fill="#ecf0f1"/><circle cx="331.06" cy="272.34" r="28.1" transform="translate(-112.58 207.45) rotate(-45)" fill="#ecf0f1"/><circle cx="226.36" cy="244.23" r="28.1" transform="translate(-123.37 125.19) rotate(-45)" fill="#ecf0f1"/><circle cx="268.48" cy="247.99" r="28.1" transform="translate(-113.69 156.07) rotate(-45)" fill="#ecf0f1"/><circle cx="351.86" cy="213.89" r="28.1" fill="#ecf0f1"/><circle cx="304.75" cy="207.74" r="28.1" fill="#ecf0f1"/><circle cx="266.38" cy="211.5" r="28.1" fill="#ecf0f1"/><circle cx="277.81" cy="289.8" r="28.1" transform="translate(-140.52 174.92) rotate(-45)" fill="#ecf0f1"/><circle cx="363.14" cy="260.06" r="23.99" transform="translate(-94.5 226.55) rotate(-45)" fill="#ecf0f1"/><circle cx="470.16" cy="269.94" r="18.69" transform="translate(-70.14 305.11) rotate(-45)" fill="#ecf0f1"/><circle cx="241.71" cy="274.4" r="28.1" transform="translate(-140.2 144.88) rotate(-45)" fill="#ecf0f1"/><circle cx="338.7" cy="289.8" r="28.1" transform="translate(-122.69 217.97) rotate(-45)" fill="#ecf0f1"/><circle cx="277.59" cy="207.82" r="28.1" fill="#ecf0f1"/><circle cx="232.5" cy="210.13" r="28.1" fill="#ecf0f1"/><circle cx="194.13" cy="213.89" r="28.1" fill="#ecf0f1"/><circle cx="205.57" cy="292.2" r="28.1" transform="translate(-163.37 124.54) rotate(-45)" fill="#ecf0f1"/><circle cx="305.27" cy="220.17" r="28.1" transform="translate(-83.24 173.94) rotate(-45)" fill="#ecf0f1"/><circle cx="201.83" cy="202.39" r="13.82" transform="translate(-100.97 95.59) rotate(-45)" fill="#ecf0f1"/><circle cx="329.03" cy="316.54" r="28.1" transform="translate(-144.42 218.97) rotate(-45)" fill="#ecf0f1"/><circle cx="185.02" cy="271.65" r="68.99" transform="translate(-154.86 103.99) rotate(-45)" fill="#ecf0f1"/><circle cx="266.46" cy="292.2" r="28.1" transform="translate(-145.54 167.59) rotate(-45)" fill="#ecf0f1"/><circle cx="362.8" cy="260.86" r="28.1" fill="#ecf0f1"/><circle cx="310.02" cy="249.86" r="28.1" fill="#ecf0f1"/><circle cx="271.65" cy="253.62" r="28.1" fill="#ecf0f1"/><circle cx="283.09" cy="331.93" r="28.1" transform="translate(-168.76 190.99) rotate(-45)" fill="#ecf0f1"/><circle cx="400.26" cy="260.06" r="20.33" transform="translate(-93.89 165.16) rotate(-34.39)" fill="#ecf0f1"/><circle cx="226.36" cy="381.25" r="28.1" transform="translate(-220.25 165.32) rotate(-45)" fill="#ecf0f1"/><circle cx="246.98" cy="316.53" r="28.1" transform="translate(-168.45 160.95) rotate(-45)" fill="#ecf0f1"/><circle cx="343.98" cy="331.93" r="28.1" transform="translate(-150.93 234.04) rotate(-45)" fill="#ecf0f1"/><circle cx="282.87" cy="249.94" r="28.1" fill="#ecf0f1"/><circle cx="237.78" cy="252.26" r="28.1" fill="#ecf0f1"/><circle cx="128.89" cy="94.65" r="28.1" fill="#ecf0f1"/><circle cx="111.04" cy="311.83" r="28.1" transform="translate(-204.94 63.44) rotate(-45)" fill="#ecf0f1"/><circle cx="317.26" cy="405.93" r="21.12" transform="translate(-211.08 236.82) rotate(-45)" fill="#ecf0f1"/><circle cx="334.76" cy="388.13" r="28.1" transform="translate(-193.37 243.98) rotate(-45)" fill="#ecf0f1"/><circle cx="160.24" cy="323.47" r="28.1" transform="translate(-198.76 101.64) rotate(-45)" fill="#ecf0f1"/><circle cx="209.8" cy="341.08" r="28.1" transform="translate(-196.7 141.85) rotate(-45)" fill="#ecf0f1"/></svg>